<mxfile host="app.diagrams.net" agent="Mozilla/5.0 (Macintosh; Intel Mac OS X 10_15_7) AppleWebKit/537.36 (KHTML, like Gecko) Chrome/131.0.0.0 Safari/537.36" version="25.0.3">
  <diagram name="第 1 页" id="91mdVB9si9U4MzxzvYgo">
    <mxGraphModel dx="1026" dy="601" grid="1" gridSize="10" guides="1" tooltips="1" connect="1" arrows="1" fold="1" page="1" pageScale="1" pageWidth="827" pageHeight="1169" math="0" shadow="0">
      <root>
        <mxCell id="0" />
        <mxCell id="1" parent="0" />
        <mxCell id="Bp4xsyls98cUeDMshTGx-1" value="" style="shape=dataStorage;whiteSpace=wrap;html=1;fixedSize=1;fillColor=#dae8fc;strokeColor=#6c8ebf;" vertex="1" parent="1">
          <mxGeometry x="80" y="250" width="690" height="80" as="geometry" />
        </mxCell>
        <mxCell id="Bp4xsyls98cUeDMshTGx-4" value="" style="rounded=1;whiteSpace=wrap;html=1;fillColor=#fff2cc;strokeColor=#d6b656;" vertex="1" parent="1">
          <mxGeometry x="90" y="80" width="330" height="90" as="geometry" />
        </mxCell>
        <mxCell id="Bp4xsyls98cUeDMshTGx-5" value="" style="rounded=1;whiteSpace=wrap;html=1;fillColor=#d5e8d4;strokeColor=#82b366;" vertex="1" parent="1">
          <mxGeometry x="452.5" y="80" width="270" height="90" as="geometry" />
        </mxCell>
        <mxCell id="Bp4xsyls98cUeDMshTGx-6" value="FansEntrance" style="rounded=0;whiteSpace=wrap;html=1;" vertex="1" parent="1">
          <mxGeometry x="110" y="120" width="90" height="40" as="geometry" />
        </mxCell>
        <mxCell id="Bp4xsyls98cUeDMshTGx-7" value="Asscociated Emoji" style="rounded=0;whiteSpace=wrap;html=1;" vertex="1" parent="1">
          <mxGeometry x="530" y="118.75" width="115" height="42.5" as="geometry" />
        </mxCell>
        <mxCell id="Bp4xsyls98cUeDMshTGx-8" value="QuickEmoji" style="rounded=0;whiteSpace=wrap;html=1;" vertex="1" parent="1">
          <mxGeometry x="210" y="120" width="90" height="40" as="geometry" />
        </mxCell>
        <mxCell id="Bp4xsyls98cUeDMshTGx-9" value="EmojiPanel" style="rounded=0;whiteSpace=wrap;html=1;" vertex="1" parent="1">
          <mxGeometry x="310" y="120" width="90" height="40" as="geometry" />
        </mxCell>
        <mxCell id="Bp4xsyls98cUeDMshTGx-10" value="Feature Fragment" style="text;strokeColor=none;fillColor=none;html=1;fontSize=24;fontStyle=1;verticalAlign=middle;align=center;" vertex="1" parent="1">
          <mxGeometry x="220" y="80" width="100" height="40" as="geometry" />
        </mxCell>
        <mxCell id="Bp4xsyls98cUeDMshTGx-11" value="Feature Fragment" style="text;strokeColor=none;fillColor=none;html=1;fontSize=24;fontStyle=1;verticalAlign=middle;align=center;" vertex="1" parent="1">
          <mxGeometry x="537.5" y="80" width="100" height="40" as="geometry" />
        </mxCell>
        <mxCell id="Bp4xsyls98cUeDMshTGx-12" value="" style="html=1;shadow=0;dashed=0;align=center;verticalAlign=middle;shape=mxgraph.arrows2.arrow;dy=0.6;dx=40;direction=south;notch=0;" vertex="1" parent="1">
          <mxGeometry x="240" y="170" width="30" height="80" as="geometry" />
        </mxCell>
        <mxCell id="Bp4xsyls98cUeDMshTGx-13" value="&lt;font style=&quot;font-size: 18px;&quot;&gt;InputViewModel&lt;/font&gt;" style="rounded=0;whiteSpace=wrap;html=1;" vertex="1" parent="1">
          <mxGeometry x="260" y="268.75" width="170" height="51.25" as="geometry" />
        </mxCell>
        <mxCell id="Bp4xsyls98cUeDMshTGx-14" value="" style="html=1;shadow=0;dashed=0;align=center;verticalAlign=middle;shape=mxgraph.arrows2.arrow;dy=0.6;dx=40;direction=south;notch=0;" vertex="1" parent="1">
          <mxGeometry x="240" y="330" width="30" height="80" as="geometry" />
        </mxCell>
        <mxCell id="Bp4xsyls98cUeDMshTGx-15" value="" style="rounded=1;whiteSpace=wrap;html=1;fillColor=#f8cecc;strokeColor=#b85450;" vertex="1" parent="1">
          <mxGeometry x="140" y="410" width="560" height="90" as="geometry" />
        </mxCell>
        <mxCell id="Bp4xsyls98cUeDMshTGx-16" value="&lt;font style=&quot;font-size: 18px;&quot;&gt;InputView&lt;/font&gt;" style="rounded=0;whiteSpace=wrap;html=1;" vertex="1" parent="1">
          <mxGeometry x="285" y="437.5" width="120" height="45" as="geometry" />
        </mxCell>
        <mxCell id="Bp4xsyls98cUeDMshTGx-17" value="" style="html=1;shadow=0;dashed=0;align=center;verticalAlign=middle;shape=mxgraph.arrows2.arrow;dy=0.6;dx=40;direction=north;notch=0;" vertex="1" parent="1">
          <mxGeometry x="580" y="330" width="30" height="80" as="geometry" />
        </mxCell>
        <mxCell id="Bp4xsyls98cUeDMshTGx-18" value="" style="html=1;shadow=0;dashed=0;align=center;verticalAlign=middle;shape=mxgraph.arrows2.arrow;dy=0.6;dx=40;direction=north;notch=0;" vertex="1" parent="1">
          <mxGeometry x="572.5" y="170" width="30" height="80" as="geometry" />
        </mxCell>
        <mxCell id="Bp4xsyls98cUeDMshTGx-19" value="ViewModel" style="text;strokeColor=none;fillColor=none;html=1;fontSize=24;fontStyle=1;verticalAlign=middle;align=center;" vertex="1" parent="1">
          <mxGeometry x="490" y="274" width="100" height="40" as="geometry" />
        </mxCell>
        <mxCell id="Bp4xsyls98cUeDMshTGx-20" value="View" style="text;strokeColor=none;fillColor=none;html=1;fontSize=24;fontStyle=1;verticalAlign=middle;align=center;" vertex="1" parent="1">
          <mxGeometry x="500" y="440" width="100" height="40" as="geometry" />
        </mxCell>
        <mxCell id="Bp4xsyls98cUeDMshTGx-21" value="&lt;ul&gt;&lt;li&gt;快捷表情&amp;amp;Emoji&lt;/li&gt;&lt;/ul&gt;" style="text;strokeColor=none;fillColor=none;html=1;whiteSpace=wrap;verticalAlign=middle;overflow=hidden;" vertex="1" parent="1">
          <mxGeometry x="250" y="180" width="140" height="50" as="geometry" />
        </mxCell>
        <mxCell id="Bp4xsyls98cUeDMshTGx-22" value="&lt;ul&gt;&lt;li&gt;快捷表情&amp;amp;Emoji&lt;/li&gt;&lt;/ul&gt;" style="text;strokeColor=none;fillColor=none;html=1;whiteSpace=wrap;verticalAlign=middle;overflow=hidden;" vertex="1" parent="1">
          <mxGeometry x="250" y="345" width="140" height="50" as="geometry" />
        </mxCell>
        <mxCell id="Bp4xsyls98cUeDMshTGx-23" value="&lt;ul&gt;&lt;li&gt;keywords&lt;span style=&quot;color: rgba(0, 0, 0, 0); font-family: monospace; font-size: 0px; text-wrap-mode: nowrap;&quot;&gt;%3CmxGraphModel%3E%3Croot%3E%3CmxCell%20id%3D%220%22%2F%3E%3CmxCell%20id%3D%221%22%20parent%3D%220%22%2F%3E%3CmxCell%20id%3D%222%22%20value%3D%22%26lt%3Bul%26gt%3B%26lt%3Bli%26gt%3B%E5%BF%AB%E6%8D%B7%E8%A1%A8%E6%83%85%26amp%3Bamp%3BEmoji%26lt%3B%2Fli%26gt%3B%26lt%3B%2Ful%26gt%3B%22%20style%3D%22text%3BstrokeColor%3Dnone%3BfillColor%3Dnone%3Bhtml%3D1%3BwhiteSpace%3Dwrap%3BverticalAlign%3Dmiddle%3Boverflow%3Dhidden%3B%22%20vertex%3D%221%22%20parent%3D%221%22%3E%3CmxGeometry%20x%3D%22250%22%20y%3D%22350%22%20width%3D%22140%22%20height%3D%2250%22%20as%3D%22geometry%22%2F%3E%3C%2FmxCell%3E%3C%2Froot%3E%3C%2FmxGraphModel%3E&lt;/span&gt;&lt;/li&gt;&lt;/ul&gt;" style="text;strokeColor=none;fillColor=none;html=1;whiteSpace=wrap;verticalAlign=middle;overflow=hidden;" vertex="1" parent="1">
          <mxGeometry x="580" y="350" width="140" height="50" as="geometry" />
        </mxCell>
        <mxCell id="Bp4xsyls98cUeDMshTGx-24" value="&lt;ul&gt;&lt;li&gt;keywords&lt;span style=&quot;color: rgba(0, 0, 0, 0); font-family: monospace; font-size: 0px; text-wrap-mode: nowrap;&quot;&gt;%3CmxGraphModel%3E%3Croot%3E%3CmxCell%20id%3D%220%22%2F%3E%3CmxCell%20id%3D%221%22%20parent%3D%220%22%2F%3E%3CmxCell%20id%3D%222%22%20value%3D%22%26lt%3Bul%26gt%3B%26lt%3Bli%26gt%3B%E5%BF%AB%E6%8D%B7%E8%A1%A8%E6%83%85%26amp%3Bamp%3BEmoji%26lt%3B%2Fli%26gt%3B%26lt%3B%2Ful%26gt%3B%22%20style%3D%22text%3BstrokeColor%3Dnone%3BfillColor%3Dnone%3Bhtml%3D1%3BwhiteSpace%3Dwrap%3BverticalAlign%3Dmiddle%3Boverflow%3Dhidden%3B%22%20vertex%3D%221%22%20parent%3D%221%22%3E%3CmxGeometry%20x%3D%22250%22%20y%3D%22350%22%20width%3D%22140%22%20height%3D%2250%22%20as%3D%22geometry%22%2F%3E%3C%2FmxCell%3E%3C%2Froot%3E%3C%2FmxGraphModel%3E&lt;/span&gt;&lt;/li&gt;&lt;/ul&gt;" style="text;strokeColor=none;fillColor=none;html=1;whiteSpace=wrap;verticalAlign=middle;overflow=hidden;" vertex="1" parent="1">
          <mxGeometry x="580" y="185" width="140" height="50" as="geometry" />
        </mxCell>
      </root>
    </mxGraphModel>
  </diagram>
</mxfile>
